# xmcd CD database file
# Copyright (C) 1996 Ti Kan
#
# Track frame offsets:
#	150
#	11832
#	25540
#	39022
#	53795
#	64777
#	78775
#	92280
#	105442
#	119547
#
# Disc length: 1734 seconds
#
# Revision: 2
# Processed by: cddbd v1.4PL0 Copyright (c) Steve Scherf et al.
# Submitted via: Gronk 1.4
#
DISCID=6506c40a
DTITLE=Etta James - At Last
DYEAR=1900
DGENRE=blues
TTITLE0=Anything To Say You're Mine
TTITLE1=My Dearest Darling
TTITLE2=Trust In Me
TTITLE3=Sunday Kind Of Love
TTITLE4=Tough Mary
TTITLE5=I Just Want To Make Love To You
TTITLE6=At Last
TTITLE7=All I Could Do Was Cry
TTITLE8=Stormy Weather
TTITLE9=Girl Of My Dreams
EXTD=
EXTT0=
EXTT1=
EXTT2=
EXTT3=
EXTT4=
EXTT5=
EXTT6=
EXTT7=
EXTT8=
EXTT9=
PLAYORDER=
